# xmcd CD database file
#
# Track frame offsets:
#	150
#	18740
#	38876
#	74473
#	96208
#	118985
#	137674
#	160608
#	183921
#	210648
#
# Disc length: 3132 seconds
#
# Revision: 2
# Processed by: cddbd v1.4PL0 Copyright (c) Steve Scherf et al.
# Submitted via: CDex 1.40Beta9
#
DISCID=8c0c3a0a
DTITLE=Tadeusz Nalepa - Zerwany Film
DYEAR=1999
DGENRE=Blues
TTITLE0=Jak od nowa zyc
TTITLE1=To ten trzeci raz
TTITLE2=Zerwany film
TTITLE3=Co to jest zycie
TTITLE4=Od ciebie nie chce nic
TTITLE5=Woda nie do picia
TTITLE6=Ale wstyd
TTITLE7=Cos sie tu nie zgadza
TTITLE8=Tak przez caly czas
TTITLE9=Co moge jescze dac
EXTD=YEAR: 1999 ID3G: 0
EXTT0=
EXTT1=
EXTT2=
EXTT3=
EXTT4=
EXTT5=
EXTT6=
EXTT7=
EXTT8=
EXTT9=
PLAYORDER=
